<svg width="180" height="40" viewBox="0 0 180 40" fill="none" xmlns="http://www.w3.org/2000/svg">
<path d="M72.543 14.512C74.175 14.512 75.487 15.016 76.479 16.024C77.487 17.016 77.991 18.408 77.991 20.2V28H74.631V20.656C74.631 19.616 74.367 18.824 73.839 18.28C73.311 17.72 72.591 17.44 71.679 17.44C70.767 17.44 70.039 17.72 69.495 18.28C68.967 18.824 68.703 19.616 68.703 20.656V28H65.343V20.656C65.343 19.616 65.079 18.824 64.551 18.28C64.023 17.72 63.303 17.44 62.391 17.44C61.463 17.44 60.727 17.72 60.183 18.28C59.655 18.824 59.391 19.616 59.391 20.656V28H56.031V14.704H59.391V16.312C59.823 15.752 60.375 15.312 61.047 14.992C61.735 14.672 62.487 14.512 63.303 14.512C64.343 14.512 65.271 14.736 66.087 15.184C66.903 15.616 67.535 16.24 67.983 17.056C68.415 16.288 69.039 15.672 69.855 15.208C70.687 14.744 71.583 14.512 72.543 14.512ZM87.0834 28.216C85.8034 28.216 84.6514 27.936 83.6274 27.376C82.6034 26.8 81.7954 25.992 81.2034 24.952C80.6274 23.912 80.3394 22.712 80.3394 21.352C80.3394 19.992 80.6354 18.792 81.2274 17.752C81.8354 16.712 82.6594 15.912 83.6994 15.352C84.7394 14.776 85.8994 14.488 87.1794 14.488C88.4594 14.488 89.6194 14.776 90.6594 15.352C91.6994 15.912 92.5154 16.712 93.1074 17.752C93.7154 18.792 94.0194 19.992 94.0194 21.352C94.0194 22.712 93.7074 23.912 93.0834 24.952C92.4754 25.992 91.6434 26.8 90.5874 27.376C89.5474 27.936 88.3794 28.216 87.0834 28.216ZM87.0834 25.288C87.6914 25.288 88.2594 25.144 88.7874 24.856C89.3314 24.552 89.7634 24.104 90.0834 23.512C90.4034 22.92 90.5634 22.2 90.5634 21.352C90.5634 20.088 90.2274 19.12 89.5554 18.448C88.8994 17.76 88.0914 17.416 87.1314 17.416C86.1714 17.416 85.3634 17.76 84.7074 18.448C84.0674 19.12 83.7474 20.088 83.7474 21.352C83.7474 22.616 84.0594 23.592 84.6834 24.28C85.3234 24.952 86.1234 25.288 87.0834 25.288ZM103.852 14.512C105.436 14.512 106.716 15.016 107.692 16.024C108.668 17.016 109.156 18.408 109.156 20.2V28H105.796V20.656C105.796 19.6 105.532 18.792 105.004 18.232C104.476 17.656 103.756 17.368 102.844 17.368C101.916 17.368 101.18 17.656 100.636 18.232C100.108 18.792 99.8441 19.6 99.8441 20.656V28H96.4841V14.704H99.8441V16.36C100.292 15.784 100.86 15.336 101.548 15.016C102.252 14.68 103.02 14.512 103.852 14.512ZM124.711 21.064C124.711 21.544 124.679 21.976 124.615 22.36H114.895C114.975 23.32 115.311 24.072 115.903 24.616C116.495 25.16 117.223 25.432 118.087 25.432C119.335 25.432 120.223 24.896 120.751 23.824H124.375C123.991 25.104 123.255 26.16 122.167 26.992C121.079 27.808 119.743 28.216 118.159 28.216C116.879 28.216 115.727 27.936 114.703 27.376C113.695 26.8 112.903 25.992 112.327 24.952C111.767 23.912 111.487 22.712 111.487 21.352C111.487 19.976 111.767 18.768 112.327 17.728C112.887 16.688 113.671 15.888 114.679 15.328C115.687 14.768 116.847 14.488 118.159 14.488C119.423 14.488 120.551 14.76 121.543 15.304C122.551 15.848 123.327 16.624 123.871 17.632C124.431 18.624 124.711 19.768 124.711 21.064ZM121.231 20.104C121.215 19.24 120.903 18.552 120.295 18.04C119.687 17.512 118.943 17.248 118.063 17.248C117.231 17.248 116.527 17.504 115.951 18.016C115.391 18.512 115.047 19.208 114.919 20.104H121.231ZM139.884 14.704L131.652 34.288H128.076L130.956 27.664L125.628 14.704H129.396L132.828 23.992L136.308 14.704H139.884ZM158.207 14.512C159.839 14.512 161.151 15.016 162.143 16.024C163.151 17.016 163.655 18.408 163.655 20.2V28H160.295V20.656C160.295 19.616 160.031 18.824 159.503 18.28C158.975 17.72 158.255 17.44 157.343 17.44C156.431 17.44 155.703 17.72 155.159 18.28C154.631 18.824 154.367 19.616 154.367 20.656V28H151.007V20.656C151.007 19.616 150.743 18.824 150.215 18.28C149.687 17.72 148.967 17.44 148.055 17.44C147.127 17.44 146.391 17.72 145.847 18.28C145.319 18.824 145.055 19.616 145.055 20.656V28H141.695V14.704H145.055V16.312C145.487 15.752 146.039 15.312 146.711 14.992C147.399 14.672 148.151 14.512 148.967 14.512C150.007 14.512 150.935 14.736 151.751 15.184C152.567 15.616 153.199 16.24 153.647 17.056C154.079 16.288 154.703 15.672 155.519 15.208C156.351 14.744 157.247 14.512 158.207 14.512ZM179.204 21.064C179.204 21.544 179.172 21.976 179.108 22.36H169.388C169.468 23.32 169.804 24.072 170.396 24.616C170.988 25.16 171.716 25.432 172.58 25.432C173.828 25.432 174.716 24.896 175.244 23.824H178.868C178.484 25.104 177.748 26.16 176.66 26.992C175.572 27.808 174.236 28.216 172.652 28.216C171.372 28.216 170.22 27.936 169.196 27.376C168.188 26.8 167.396 25.992 166.82 24.952C166.26 23.912 165.979 22.712 165.979 21.352C165.979 19.976 166.26 18.768 166.82 17.728C167.38 16.688 168.164 15.888 169.172 15.328C170.18 14.768 171.34 14.488 172.652 14.488C173.916 14.488 175.044 14.76 176.036 15.304C177.044 15.848 177.82 16.624 178.364 17.632C178.924 18.624 179.204 19.768 179.204 21.064ZM175.724 20.104C175.708 19.24 175.396 18.552 174.788 18.04C174.18 17.512 173.436 17.248 172.556 17.248C171.724 17.248 171.02 17.504 170.444 18.016C169.884 18.512 169.54 19.208 169.412 20.104H175.724Z" fill="white"/>
<path d="M34.1422 5.85781C30.3647 2.08031 25.3422 0 20 0C14.6578 0 9.63531 2.08031 5.85781 5.85781C2.08031 9.63531 0 14.6578 0 20C0 25.3422 2.08039 30.3646 5.85781 34.1422C9.63523 37.9198 14.6578 40 20 40C25.3422 40 30.3647 37.9197 34.1422 34.1422C37.9197 30.3647 40 25.3422 40 20C40 14.6578 37.9196 9.63539 34.1422 5.85781Z" fill="#33CC95"/>
<g clip-path="url(#clip0)">
<path d="M20.5714 8V33.1429" stroke="white" stroke-width="2" stroke-linecap="round" stroke-linejoin="round"/>
<path d="M26.2857 12.5714H17.7143C16.6534 12.5714 15.636 12.9929 14.8859 13.743C14.1357 14.4931 13.7143 15.5106 13.7143 16.5714C13.7143 17.6323 14.1357 18.6497 14.8859 19.3999C15.636 20.15 16.6534 20.5714 17.7143 20.5714H23.4286C24.4894 20.5714 25.5069 20.9929 26.257 21.743C27.0072 22.4932 27.4286 23.5106 27.4286 24.5714C27.4286 25.6323 27.0072 26.6497 26.257 27.3999C25.5069 28.15 24.4894 28.5714 23.4286 28.5714H13.7143" stroke="white" stroke-width="2" stroke-linecap="round" stroke-linejoin="round"/>
</g>
<defs>
<clipPath id="clip0">
<rect width="27.4286" height="27.4286" fill="white" transform="translate(6.85715 6.85714)"/>
</clipPath>
</defs>
</svg>
